<svg xmlns="http://www.w3.org/2000/svg" width="467.593" height="482.224" viewBox="0 0 467.593 482.224">
  <g id="Group_2055" data-name="Group 2055" transform="translate(-900.603 -214.508)">
    <g id="Group_2054" data-name="Group 2054" transform="translate(900.603 214.508)">
      <g id="Group_2050" data-name="Group 2050" transform="translate(166.47 129.239)">
        <path id="Path_8789" data-name="Path 8789" d="M7334.871,7457.763l-33.278-82.232,32.268-63.6v-46.577H7195.779V7237.6h165.835v80.97l-29.559,58.252,28.544,70.53Z" transform="translate(-7195.621 -7237.602)" fill="#fff"/>
        <path id="Path_8790" data-name="Path 8790" d="M7215.5,7417.251h-27.752V7268.92H7215.5Z" transform="translate(-7187.748 -7198.068)" fill="#fff"/>
        <path id="Path_8791" data-name="Path 8791" d="M22.2,0l9.639,19.278L44.4,44.4H0Z" transform="translate(98.853 118.02) rotate(180)" fill="#294973"/>
      </g>
      <path id="Path_8793" data-name="Path 8793" d="M5793.826,7143.114H5766V6902h241.887v27.827H5793.826Z" transform="translate(-5766.002 -6902.002)" fill="#fff"/>
      <path id="Path_8794" data-name="Path 8794" d="M27.827,241.112H0V0H225.707V27.827H27.827Z" transform="translate(467.593 482.223) rotate(180)" fill="#fff"/>
      <path id="Path_8793-2" data-name="Path 8793" d="M19.452,168.56H0V0H169.1V19.453H19.452Z" transform="translate(402.356 77.663) rotate(90)" fill="#294973"/>
      <path id="Path_8794-2" data-name="Path 8794" d="M19.454,168.559H0V0H157.789V19.454H19.454Z" transform="translate(65.237 404.552) rotate(-90)" fill="#294973"/>
    </g>
  </g>
</svg>
