<svg xmlns="http://www.w3.org/2000/svg" width="211.403" height="61" viewBox="0 0 211.403 61">
  <g id="Group_2051" data-name="Group 2051" transform="translate(-197.419 -269.109)">
    <g id="Group_1872" data-name="Group 1872" transform="translate(248.822 269.109)">
      <text id="Reskit" transform="translate(0 50)" fill="#fff" font-size="52" font-family="HelveticaRounded-Bold, Helvetica Rounded" font-weight="700"><tspan x="0" y="0">Reskit</tspan></text>
    </g>
    <g id="Group_1866" data-name="Group 1866" transform="matrix(-0.259, -0.966, 0.966, -0.259, 204.402, 327.771)">
      <path id="Path_8788" data-name="Path 8788" d="M.365,22.659A.365.365,0,0,1,0,22.294v-19A3.293,3.293,0,0,1,3.289,0h19a.365.365,0,0,1,0,.731h-19A2.561,2.561,0,0,0,.731,3.289v19A.365.365,0,0,1,.365,22.659Z" transform="translate(2.162 2.162)" fill="#fff"/>
      <path id="Path_8788_-_Outline" data-name="Path 8788 - Outline" d="M2.527,26.983A2.53,2.53,0,0,1,0,24.455v-19A5.457,5.457,0,0,1,5.451,0h19a2.527,2.527,0,0,1,0,5.054h-19a.4.4,0,0,0-.4.4v19A2.53,2.53,0,0,1,2.527,26.983Z" transform="translate(0 0)" fill="#fff"/>
      <path id="Path_8789" data-name="Path 8789" d="M20.165,23.454H.365a.365.365,0,1,1,0-.731h19.8a2.561,2.561,0,0,0,2.558-2.558V.365a.365.365,0,1,1,.731,0v19.8A3.293,3.293,0,0,1,20.165,23.454Z" transform="translate(20.371 20.371)" fill="#fff"/>
      <path id="Path_8789_-_Outline" data-name="Path 8789 - Outline" d="M22.327,27.778H2.527a2.527,2.527,0,1,1,0-5.054h19.8a.4.4,0,0,0,.4-.4V2.527a2.527,2.527,0,0,1,5.054,0v19.8A5.457,5.457,0,0,1,22.327,27.778Z" transform="translate(18.209 18.209)" fill="#fff"/>
      <path id="Rectangle_2355" data-name="Rectangle 2355" d="M10.376,5.188a5.188,5.188,0,0,0-5.188,5.188v6.053a5.188,5.188,0,0,0,5.188,5.188h6.053a5.188,5.188,0,0,0,5.188-5.188V10.376a5.188,5.188,0,0,0-5.188-5.188H10.376m0-5.188h6.053A10.388,10.388,0,0,1,26.806,10.376v6.053A10.388,10.388,0,0,1,16.429,26.806H10.376A10.388,10.388,0,0,1,0,16.429V10.376A10.388,10.388,0,0,1,10.376,0Z" transform="translate(36.309 8.494) rotate(90)" fill="#fff"/>
    </g>
  </g>
</svg>
